<svg width="32" height="32" viewBox="0 0 32 32" fill="none" xmlns="http://www.w3.org/2000/svg">
<circle cx="16" cy="16" r="15" stroke="#22DDD2" stroke-width="2"/>
<path d="M19.0997 8C19.3587 8 19.6837 8.068 19.9447 8.132C20.8547 8.352 21.9337 8.625 22.6997 9.2C23.4127 9.735 23.9667 10.668 24.3947 11.616C25.2847 13.591 25.9037 16.224 26.1177 18.226C26.2197 19.176 26.2447 20.132 26.0617 20.775C25.9717 21.091 25.7767 21.329 25.6397 21.475C25.2217 21.918 24.6837 22.249 24.1517 22.55L23.8877 22.699C23.7138 22.7958 23.5388 22.8904 23.3627 22.983L22.8407 23.253L22.1237 23.61L21.5467 23.894C21.3355 23.9998 21.0938 24.0274 20.8642 23.972C20.6346 23.9166 20.4321 23.7817 20.2924 23.5913C20.1528 23.4008 20.085 23.1671 20.1012 22.9315C20.1173 22.6959 20.2164 22.4736 20.3807 22.304L19.9467 21.436C18.6989 21.8161 17.4011 22.0062 16.0967 22C14.7267 22 13.4197 21.8 12.2467 21.436L11.8137 22.302C11.9787 22.4713 12.0783 22.6936 12.095 22.9294C12.1116 23.1652 12.0442 23.3992 11.9047 23.5901C11.7652 23.7809 11.5626 23.9161 11.3328 23.9717C11.1031 24.0274 10.8611 23.9998 10.6497 23.894L10.1057 23.624C9.50169 23.326 8.89769 23.028 8.30969 22.699C7.69569 22.356 7.04469 21.991 6.55769 21.474C6.36344 21.2775 6.21878 21.0375 6.13569 20.774C5.95169 20.132 5.97769 19.177 6.07869 18.226C6.29269 16.224 6.91169 13.591 7.80269 11.616C8.22969 10.668 8.78369 9.735 9.49669 9.2C10.2627 8.625 11.3417 8.352 12.2517 8.132C12.5127 8.068 12.8367 8 13.0967 8C13.2405 7.99988 13.3827 8.03078 13.5135 8.09059C13.6443 8.15041 13.7606 8.23773 13.8546 8.3466C13.9485 8.45548 14.0179 8.58334 14.058 8.72147C14.098 8.8596 14.1078 9.00474 14.0867 9.147C14.7523 9.04978 15.424 9.00065 16.0967 9C16.7877 9 17.4627 9.05 18.1107 9.148C18.0894 9.00567 18.0991 8.86041 18.1391 8.72216C18.179 8.58391 18.2484 8.45592 18.3424 8.34693C18.4364 8.23794 18.5528 8.15052 18.6837 8.09065C18.8145 8.03078 18.9558 7.99985 19.0997 8ZM20.4537 10.363C20.3037 10.315 20.2677 10.336 20.2137 10.426L20.1517 10.538C19.9901 10.8151 19.7447 11.0337 19.4508 11.1623C19.157 11.291 18.8299 11.3231 18.5167 11.254C17.7214 11.0832 16.9101 10.9981 16.0967 11C15.2447 11 14.4297 11.09 13.6767 11.254C13.3635 11.3231 13.0364 11.291 12.7426 11.1623C12.4487 11.0337 12.2033 10.8151 12.0417 10.538L11.9797 10.427C11.9267 10.337 11.8907 10.316 11.7417 10.363C11.3857 10.476 11.0037 10.597 10.6967 10.8C10.4097 11.015 10.0267 11.55 9.62569 12.439C8.85969 14.136 8.25969 16.643 8.06769 18.439C8.02769 18.819 8.00569 19.143 8.00169 19.411V19.705C8.00636 19.883 8.01803 20.0237 8.03669 20.127C8.29069 20.375 8.60469 20.57 8.91969 20.749L9.60169 21.126L10.0477 21.361L10.4117 20.633C10.2355 20.4688 10.1244 20.2465 10.099 20.007C10.0736 19.7674 10.1354 19.5268 10.2733 19.3292C10.4111 19.1317 10.6156 18.9905 10.8492 18.9317C11.0828 18.8728 11.3297 18.9003 11.5447 19.009C12.7607 19.62 14.3427 20 16.0967 20C17.8507 20 19.4327 19.618 20.6487 19.01C20.8545 18.9069 21.0895 18.878 21.3141 18.928C21.5388 18.9781 21.7393 19.1041 21.8818 19.2848C22.0243 19.4655 22.1001 19.6899 22.0965 19.92C22.0928 20.1501 22.0099 20.3719 21.8617 20.548L21.7817 20.633L22.1457 21.363C22.4437 21.2077 22.7427 21.0467 23.0427 20.88C23.4327 20.664 23.8427 20.437 24.1597 20.127C24.1777 20.0237 24.1894 19.883 24.1947 19.705V19.411C24.1871 19.0859 24.1651 18.7612 24.1287 18.438C23.9367 16.643 23.3367 14.136 22.5707 12.438C22.1707 11.55 21.7867 11.015 21.5007 10.8C21.1927 10.597 20.8107 10.476 20.4537 10.363ZM12.8467 14.5C13.3108 14.5 13.7559 14.6844 14.0841 15.0126C14.4123 15.3408 14.5967 15.7859 14.5967 16.25C14.5967 16.7141 14.4123 17.1592 14.0841 17.4874C13.7559 17.8156 13.3108 18 12.8467 18C12.3826 18 11.9374 17.8156 11.6093 17.4874C11.2811 17.1592 11.0967 16.7141 11.0967 16.25C11.0967 15.7859 11.2811 15.3408 11.6093 15.0126C11.9374 14.6844 12.3826 14.5 12.8467 14.5ZM19.3467 14.5C19.8108 14.5 20.2559 14.6844 20.5841 15.0126C20.9123 15.3408 21.0967 15.7859 21.0967 16.25C21.0967 16.7141 20.9123 17.1592 20.5841 17.4874C20.2559 17.8156 19.8108 18 19.3467 18C18.8826 18 18.4374 17.8156 18.1093 17.4874C17.7811 17.1592 17.5967 16.7141 17.5967 16.25C17.5967 15.7859 17.7811 15.3408 18.1093 15.0126C18.4374 14.6844 18.8826 14.5 19.3467 14.5Z" fill="#22DDD2"/>
</svg>
