<svg width="33" height="33" viewBox="0 0 33 33" fill="none" xmlns="http://www.w3.org/2000/svg">
<path fill-rule="evenodd" clip-rule="evenodd" d="M3.07175 5.99087C2.86387 6.23858 2.74995 6.55163 2.75 6.875V23.375C2.75 24.469 3.1846 25.5182 3.95818 26.2918C4.73177 27.0654 5.78098 27.5 6.875 27.5H26.125C27.219 27.5 28.2682 27.0654 29.0418 26.2918C29.8154 25.5182 30.25 24.469 30.25 23.375V6.88875C30.2519 6.68376 30.2079 6.48095 30.1213 6.29514C30.0347 6.10933 29.9077 5.94524 29.7495 5.81488C29.5048 5.61279 29.1978 5.50154 28.8805 5.5H4.125C3.92425 5.49997 3.72593 5.5439 3.54397 5.62871C3.36201 5.71351 3.20083 5.83713 3.07175 5.99087ZM5.5 10.1943V23.375C5.5 23.7397 5.64487 24.0894 5.90273 24.3473C6.16059 24.6051 6.51033 24.75 6.875 24.75H26.125C26.4897 24.75 26.8394 24.6051 27.0973 24.3473C27.3551 24.0894 27.5 23.7397 27.5 23.375V10.1943L17.4721 20.2221C17.2143 20.4799 16.8646 20.6247 16.5 20.6247C16.1354 20.6247 15.7857 20.4799 15.5279 20.2221L5.5 10.1943Z" fill="#22DDD2"/>
</svg>
