<svg width="32" height="32" viewBox="0 0 32 32" fill="none" xmlns="http://www.w3.org/2000/svg">
<path d="M26.8375 4.60253C24.6382 2.40423 21.8364 0.907445 18.7865 0.301453C15.7366 -0.30454 12.5754 0.00747725 9.70278 1.19805C6.83015 2.38862 4.37508 4.40427 2.648 6.99012C0.920928 9.57597 -0.000582134 12.6159 2.75899e-07 15.7255C-2.52269e-07 19.896 1.65622 23.8959 4.60453 26.8457C7.55285 29.7955 11.5519 31.4538 15.7225 31.4559C17.7863 31.4559 19.8302 31.0525 21.7392 30.2684C23.6416 29.4648 25.3724 28.3039 26.8375 26.8484C28.2983 25.3878 29.4572 23.6537 30.2478 21.7452C31.0384 19.8368 31.4453 17.7912 31.4453 15.7255C31.4453 13.6597 31.0384 11.6142 30.2478 9.70566C29.4572 7.79718 28.2983 6.06313 26.8375 4.60253ZM25.7292 25.7242C23.4652 27.9981 20.4943 29.4332 17.3058 29.7934V19.4067H20.2825C20.7024 19.4067 21.1052 19.2399 21.4021 18.943C21.699 18.646 21.8658 18.2433 21.8658 17.8234C21.8658 17.4034 21.699 17.0007 21.4021 16.7038C21.1052 16.4068 20.7024 16.24 20.2825 16.24H17.3058V11.9017C17.3058 11.4818 17.4726 11.079 17.7696 10.7821C18.0665 10.4852 18.4692 10.3184 18.8892 10.3184H20.7892C21.2091 10.3184 21.6118 10.1516 21.9088 9.85462C22.2057 9.55769 22.3725 9.15496 22.3725 8.73503C22.3725 8.31511 22.2057 7.91238 21.9088 7.61545C21.6118 7.31852 21.2091 7.1517 20.7892 7.1517H18.0975C17.0477 7.1517 16.0409 7.56874 15.2985 8.31107C14.5562 9.0534 14.1392 10.0602 14.1392 11.11V16.24H11.1783C10.7584 16.24 10.3557 16.4068 10.0587 16.7038C9.76182 17.0007 9.595 17.4034 9.595 17.8234C9.595 18.2433 9.76182 18.646 10.0587 18.943C10.3557 19.2399 10.7584 19.4067 11.1783 19.4067H14.1392V29.7934C11.1987 29.4579 8.43803 28.2071 6.24696 26.2177C4.0559 24.2282 2.54523 21.6007 1.92834 18.7062C1.31145 15.8117 1.61953 12.7966 2.80904 10.0867C3.99856 7.37674 6.00939 5.10901 8.55752 3.6038C11.1056 2.09859 14.0623 1.43197 17.0098 1.6981C19.9573 1.96423 22.7467 3.14966 24.984 5.08695C27.2213 7.02423 28.7934 9.61546 29.4783 12.4946C30.1632 15.3738 29.9262 18.3954 28.8008 21.1325C28.0827 22.8469 27.0396 24.4061 25.7292 25.7242Z" fill="#22DDD2"/>
</svg>
