<svg width="32" height="32" viewBox="0 0 32 32" fill="none" xmlns="http://www.w3.org/2000/svg">
<circle cx="16" cy="16" r="15" stroke="#22DDD2" stroke-width="2"/>
<path d="M11.44 12.89C12.24 12.89 12.88 12.24 12.88 11.45C12.88 10.66 12.23 10.01 11.44 10.01C10.65 10.01 10 10.66 10 11.45C10 12.24 10.65 12.89 11.44 12.89ZM14.25 13.98V22H16.73V18.04C16.73 16.99 16.93 15.98 18.22 15.98C19.51 15.98 19.51 17.18 19.51 18.1V22H22V17.6C22 15.44 21.54 13.78 19.02 13.78C17.81 13.78 17 14.44 16.67 15.07H16.64V13.97H14.26L14.25 13.98ZM10.2 13.98H12.69V22H10.2V13.98Z" fill="#22DDD2"/>
</svg>
